<svg xmlns="http://www.w3.org/2000/svg" width="819" height="784" fill="none"><path fill="url(#a)" d="M339.379 134.137h.07C365.233 43.999 477.587 0 592.083 0c79.118 0 150.141 25.047 198.831 64.81a292.183 292.183 0 0 0-85.12 16.917c39.343 14.623 73.14 37.12 98.187 64.951a302.628 302.628 0 0 0-57.23-4.328 407.561 407.561 0 0 1 72.158 232.195C818.909 600.681 635.59 784 409.454 784 186.805 784 0 597.581 0 374.545c0-35.224 4.68-71.596 13.77-105.709 2.386-7.16 5.708-14.027 10.119-16.542 5.521-3.147 10.552 6.235 11.36 9.289a375.064 375.064 0 0 0 24.063 65.185c-.877-46.748 19.093-89.331 46.561-126.159 18.32-24.555 35.307-47.309 43.145-112.974.526-4.41 4.703-7.58 8.926-6.2 59.617 19.513 91.484 118.788 86.535 201.802 32.932 4.715 32.78-29.691 32.78-29.691-10.529-32.359-3.51-92.502 62.003-119.409h.117Z"/><path fill="url(#b)" d="M805.514 270.275c9.955 225.2-175.177 419.363-400.926 419.363-211.337 0-384.513-163.348-400.178-370.673a432.154 432.154 0 0 0-4.398 58.611C1.614 599.406 187.963 784 409.466 784c226.136 0 409.454-183.318 409.454-409.454 0-36.032-4.668-70.976-13.406-104.271Z" opacity=".9"/><path fill="url(#c)" d="M399.476 163.981c-4.411-7.803-24.778-19.35-33.681-21.362 33.693-107.92 205.336-141.051 310.39-121.96 43.718 7.956 98.164 31.775 114.729 44.152C742.224 25.047 671.19 0 592.083 0 477.588 0 365.234 43.999 339.45 134.137h-.187c-65.513 26.907-72.532 87.074-62.003 119.42 10.107-38.594 58.201-86.02 122.216-89.576Z" style="mix-blend-mode:screen"/><path fill="url(#d)" d="M518.463 89.449c-91.976 18.097-122.029 24.017-152.809 53.275 34.57-91.518 122.813-110.073 227.961-68.355a7508.738 7508.738 0 0 1-75.152 15.091v-.011Z"/><path fill="url(#e)" d="M22.227 256.307c-25.129 102.878-5.709 223.796 108.447 325.271-33.985-37.167-75.48-174.393 16.086-272.428 6.165-6.61 16.776-1.755 17.115 7.277 7.546 203.744 171.947 328.183 361.49 304.914-58.728-3.299-252.95-71.326-108.471-98.233 75.515-14.074 193.918-36.126 193.918-142.374 0-172.228-133.166-222.579-213.922-215.092-55.265 5.124-104.458 40.197-119.596 87.893 5.814 18.799-17.361 31.96-32.815 29.749 4.96-83.002-26.907-182.335-86.535-201.849-4.212-1.38-8.4 1.79-8.926 6.2-7.838 65.665-24.825 88.419-43.133 112.975-27.48 36.839-47.45 79.41-46.573 126.158a375.113 375.113 0 0 1-24.064-65.185c-.667-2.527-4.329-9.581-8.75-9.909-2.399-.175-3.674 2.165-4.27 4.633Z"/><path fill="url(#f)" d="M366.158 533.532c111.185 90.278 334.782 22.59 334.782-196.913-90.267 136.828-205.242 231.213-334.77 196.913h-.012Z" style="mix-blend-mode:screen"/><path fill="url(#g)" d="M146.761 309.15a9.235 9.235 0 0 1 8.166-2.995c-81.961 99.965-15.852 275.527 29.516 318.66 2.538 7.183-43.04-30.17-49.322-38.909-34.511-29.282-83.973-174.381 11.64-276.756Z" style="mix-blend-mode:screen"/><path fill="url(#h)" d="M409.455 541.802c111.207 0 201.369-73.562 201.369-164.308 0-90.747-90.162-164.308-201.369-164.308-94.877 0-201.417 61.722-201.37 166.706.047 162.226 171.433 255.558 317.526 241.426-10.974-1.275-79.434-4.914-125.703-57.254-4.176-4.714-11.417-12.95-8.13-18.296 3.275-5.347 12.307-3.978 17.665-3.978l.012.012Z"/><path fill="#fff" d="M437.707 130.99c21.549-6.785 19.653-28.112 19.653-28.112s-10.774-12.693-32.124-5.662c-19.982 6.586-23.082 20.823-23.082 20.823s10.915 20.707 35.553 12.951Z"/><path fill="#fff" fill-rule="evenodd" d="M402.434 269.917a8.85 8.85 0 0 1 8.847 8.847v8.918a579.328 579.328 0 0 1 107.959 11.796 8.85 8.85 0 0 1 7.04 9.571 8.843 8.843 0 0 1-8.834 7.947h-22.625l29.184 119.424a8.844 8.844 0 0 1-4.423 9.909 79.306 79.306 0 0 1-37.524 9.378 79.306 79.306 0 0 1-37.524-9.378 8.848 8.848 0 0 1-4.423-9.909l29.183-119.424h-58.013v156.653c15.252.896 29.891 4.046 43.61 9.154a8.844 8.844 0 0 1 5.624 9.862 8.844 8.844 0 0 1-8.714 7.278h-98.734a8.849 8.849 0 0 1-3.091-17.14c13.707-5.108 28.358-8.258 43.611-9.142V316.984h-58.014l29.184 119.424a8.854 8.854 0 0 1-4.424 9.909 79.306 79.306 0 0 1-37.524 9.39 79.299 79.299 0 0 1-37.523-9.378 8.85 8.85 0 0 1-4.424-9.909l29.184-119.424h-22.625a8.844 8.844 0 0 1-8.834-7.947 8.847 8.847 0 0 1 7.041-9.571 579.31 579.31 0 0 1 107.959-11.796v-8.918a8.848 8.848 0 0 1 8.847-8.847Zm57.541 159.756 22.083-90.383 22.082 90.383h-44.165Zm-115.083 0-22.083-90.383-22.082 90.383h44.165Z" clip-rule="evenodd"/><path fill="url(#i)" fill-rule="evenodd" d="M402.434 265.527a8.847 8.847 0 0 1 8.847 8.847v8.918a579.245 579.245 0 0 1 107.959 11.797 8.848 8.848 0 0 1-1.794 17.517h-22.625l29.184 119.424a8.846 8.846 0 0 1-4.423 9.909 79.306 79.306 0 0 1-37.524 9.378 79.306 79.306 0 0 1-37.524-9.378 8.846 8.846 0 0 1-4.423-9.909l29.183-119.424h-58.013v156.653c15.252.897 29.891 4.046 43.61 9.154a8.844 8.844 0 0 1 5.624 9.863 8.85 8.85 0 0 1-8.714 7.277h-98.734a8.848 8.848 0 0 1-3.091-17.14c13.707-5.108 28.358-8.257 43.611-9.142V312.594h-58.014l29.184 119.425a8.85 8.85 0 0 1-4.424 9.908 79.306 79.306 0 0 1-37.524 9.39 79.299 79.299 0 0 1-37.523-9.378 8.848 8.848 0 0 1-4.424-9.909l29.184-119.424h-22.625a8.846 8.846 0 0 1-1.793-17.517 579.227 579.227 0 0 1 107.959-11.797v-8.918a8.846 8.846 0 0 1 8.847-8.847Zm57.541 159.756 22.083-90.382 22.082 90.382h-44.165Zm-115.083 0-22.083-90.382-22.082 90.382h44.165Z" clip-rule="evenodd"/><path fill="#51412C" d="M411.281 469.259c15.253.896 29.892 4.046 43.611 9.154a8.845 8.845 0 0 1 5.486 10.485 8.845 8.845 0 0 0-5.486-6.096c-13.719-5.108-28.358-8.257-43.611-9.154v-4.389Zm-17.694 4.401c-15.252.885-29.903 4.034-43.61 9.142a8.846 8.846 0 0 0-5.488 6.095 8.843 8.843 0 0 1 5.488-10.484c13.707-5.108 28.358-8.257 43.61-9.142v4.389Zm75.708-156.665-29.162 119.334a8.845 8.845 0 0 1-.023-4.299l28.113-115.035h1.072Zm-159.249 0-29.162 119.332a8.85 8.85 0 0 1-.022-4.297l28.112-115.035h1.072ZM524.005 432.03a8.837 8.837 0 0 1-.023 4.297l-29.161-119.332h1.073l28.111 115.035ZM336.646 316.983l28.111 115.036a8.833 8.833 0 0 1-.023 4.296l-29.161-119.332h1.073Zm7.173 108.3 1.073 4.389h-44.164l1.072-4.389h42.019Zm160.322 4.389h-44.165l1.072-4.389h42.02l1.073 4.389Zm-110.554-141.99a579.15 579.15 0 0 0-107.959 11.796 8.845 8.845 0 0 0-6.81 6.477 8.842 8.842 0 0 1 1.444-7.438 8.847 8.847 0 0 1 5.366-3.428 579.236 579.236 0 0 1 107.959-11.797v4.39Zm17.694-4.39a579.31 579.31 0 0 1 107.958 11.797 8.847 8.847 0 0 1 6.809 10.866 8.837 8.837 0 0 0-6.809-6.477 579.14 579.14 0 0 0-107.958-11.796v-4.39Zm-8.847-17.765a8.846 8.846 0 0 1 8.847 8.847v4.39a8.847 8.847 0 1 0-17.694 0v-4.39a8.848 8.848 0 0 1 8.847-8.847Z"/><defs><linearGradient id="a" x1="142.116" x2="719.329" y1="134.956" y2="673.353" gradientUnits="userSpaceOnUse"><stop stop-color="#96764B"/><stop offset="1" stop-color="#755B38"/></linearGradient><linearGradient id="d" x1="302.727" x2="510.426" y1="272.779" y2="41.566" gradientUnits="userSpaceOnUse"><stop stop-color="#755B38"/><stop offset="1" stop-color="#755B38" stop-opacity="0"/></linearGradient><linearGradient id="f" x1="666.733" x2="570.16" y1="440.188" y2="677.309" gradientUnits="userSpaceOnUse"><stop stop-color="#F59E0B" stop-opacity="0"/><stop offset="0" stop-color="#EFDFC4" stop-opacity="0"/><stop offset="1" stop-color="#EFDFC4" stop-opacity=".64"/></linearGradient><linearGradient id="g" x1="67.865" x2="152.95" y1="227.54" y2="569.984" gradientUnits="userSpaceOnUse"><stop offset=".1" stop-color="#EFDFC4"/><stop offset="1" stop-color="#EFDFC4" stop-opacity="0"/></linearGradient><linearGradient id="h" x1="409.455" x2="409.455" y1="273.352" y2="619.633" gradientUnits="userSpaceOnUse"><stop stop-color="#fff"/><stop offset=".91" stop-color="#F4E9D7"/><stop offset="1" stop-color="#EFDFC4"/></linearGradient><linearGradient id="i" x1="413.591" x2="413.553" y1="449.761" y2="334.932" gradientUnits="userSpaceOnUse"><stop stop-color="#96764B"/><stop offset="1" stop-color="#755B38"/></linearGradient><radialGradient id="b" cx="0" cy="0" r="1" gradientTransform="matrix(137.96279 317.56093 -304.21133 132.16312 141.051 320.205)" gradientUnits="userSpaceOnUse"><stop offset=".53" stop-color="#755B38" stop-opacity="0"/><stop offset="1" stop-color="#755B38" stop-opacity=".45"/></radialGradient><radialGradient id="c" cx="0" cy="0" r="1" gradientTransform="rotate(-127.997 253.405 -13.423) scale(74.0179 122.483)" gradientUnits="userSpaceOnUse"><stop stop-color="#EFDFC4" stop-opacity="0"/><stop offset="1" stop-color="#EFDFC4" stop-opacity=".64"/></radialGradient><radialGradient id="e" cx="0" cy="0" r="1" gradientTransform="matrix(234.559 -486.56023 601.04552 289.74962 255.031 597.64)" gradientUnits="userSpaceOnUse"><stop offset=".02" stop-color="#51412C"/><stop offset=".97" stop-color="#51412C" stop-opacity="0"/></radialGradient></defs></svg>