<?xml version="1.0" encoding="UTF-8"?>
<!-- Generator: Adobe Illustrator 16.0.3, SVG Export Plug-In . SVG Version: 6.00 Build 0)  -->
<!DOCTYPE svg PUBLIC "-//W3C//DTD SVG 1.1//EN" "http://www.w3.org/Graphics/SVG/1.1/DTD/svg11.dtd">
<svg version="1.1" id="Layer_1" xmlns="http://www.w3.org/2000/svg" xmlns:xlink="http://www.w3.org/1999/xlink" x="0px" y="0px" width="504px" height="360px" viewBox="0 0 504 360" enable-background="new 0 0 504 360" xml:space="preserve"><script xmlns="" async="false" type="text/javascript" src="moz-extension://505bf87e-6455-44a9-9114-b59ec0679aec/in-page.js"/>
<g enable-background="new    ">
	<path d="M24.742,13.23h11.83c2.332,0,4.216,0.316,5.651,0.949s2.622,1.541,3.56,2.725s1.617,2.561,2.039,4.131   s0.633,3.234,0.633,4.992c0,2.754-0.313,4.89-0.94,6.407s-1.497,2.789-2.61,3.814s-2.309,1.708-3.586,2.048   C39.572,38.766,37.99,39,36.572,39h-11.83V13.23z M32.705,19.066v14.08h1.951c1.664,0,2.848-0.185,3.551-0.554   s1.254-1.014,1.652-1.934s0.598-2.411,0.598-4.474c0-2.73-0.445-4.6-1.336-5.607s-2.367-1.512-4.43-1.512H32.705z"/>
	<path d="M127.404,13.23h7.945v15.354c0,1.522-0.237,2.96-0.712,4.313s-1.219,2.535-2.232,3.548s-2.077,1.725-3.19,2.135   c-1.547,0.573-3.404,0.86-5.572,0.86c-1.254,0-2.622-0.088-4.104-0.264s-2.722-0.523-3.718-1.045s-1.907-1.262-2.733-2.222   c-0.826-0.961-1.392-1.95-1.696-2.97c-0.492-1.639-0.738-3.091-0.738-4.355V13.23h7.945v15.719c0,1.405,0.39,2.503,1.169,3.293   c0.779,0.791,1.86,1.186,3.243,1.186c1.371,0,2.446-0.39,3.226-1.168s1.169-1.882,1.169-3.311V13.23z"/>
	<path d="M198.619,13.23h7.963v19.424h12.428V39h-20.391V13.23z"/>
	<path d="M297.168,28.453l6.979,2.109c-0.469,1.957-1.207,3.592-2.215,4.904s-2.26,2.303-3.754,2.971s-3.395,1.002-5.703,1.002   c-2.801,0-5.09-0.407-6.865-1.221c-1.775-0.814-3.307-2.245-4.596-4.295s-1.934-4.673-1.934-7.87c0-4.263,1.133-7.539,3.4-9.828   c2.268-2.29,5.477-3.435,9.625-3.435c3.246,0,5.797,0.656,7.654,1.969s3.238,3.328,4.141,6.047l-7.031,1.564   c-0.246-0.785-0.504-1.359-0.773-1.723c-0.445-0.609-0.99-1.078-1.635-1.406s-1.365-0.492-2.162-0.492   c-1.805,0-3.188,0.726-4.148,2.177c-0.727,1.077-1.09,2.769-1.09,5.074c0,2.856,0.434,4.813,1.301,5.873s2.086,1.589,3.656,1.589   c1.523,0,2.674-0.428,3.453-1.283S296.816,30.082,297.168,28.453z"/>
	<path d="M365.992,13.23h21.34v5.502h-13.359v4.096h12.393v5.256h-12.393v5.08h13.746V39h-21.727V13.23z"/>
	<path d="M448.193,13.23h24.205v6.363h-8.121V39h-7.963V19.594h-8.121V13.23z"/>
</g>
<rect x="28" y="58" fill="#FF0000" stroke="#000000" stroke-width="5" width="84" height="244"/>
<g enable-background="new    ">
	<path fill="#FFF200" stroke="#000000" stroke-width="5" d="M34.41,105.678h70.598v37.119H81.321V256H58.096V142.797H34.41V105.678z   "/>
</g>
<rect x="147" y="58" fill="#0000FF" stroke="#000000" stroke-width="5" width="84" height="244"/>
<g enable-background="new    ">
	<path fill="#FF0000" stroke="#000000" stroke-width="5" d="M157.639,105.678h62.241v32.095h-38.965v23.892h36.145v30.659h-36.145   v29.634h40.093V256h-63.369V105.678z"/>
</g>
<rect x="266" y="58" fill="#00A651" stroke="#000000" stroke-width="5" width="84" height="244"/>
<g enable-background="new    ">
	<path fill="#0000FF" stroke="#000000" stroke-width="5" d="M320.898,231.186h-26.367L290.867,256h-23.713l28.249-150.322h25.334   L348.98,256h-24.321L320.898,231.186z M316.081,198.681l-8.296-54.038l-8.21,54.038H316.081z"/>
</g>
<rect x="385" y="58" fill="#FFF200" stroke="#000000" stroke-width="5" width="84" height="244"/>
<g enable-background="new    ">
	<path fill="#00A651" stroke="#000000" stroke-width="5" d="M397.69,105.678h23.226v113.306h36.247V256H397.69V105.678z"/>
</g>
<g>
	<path d="M22.826,315.23h24.205v6.363H38.91V341h-7.963v-19.406h-8.121V315.23z"/>
	<path d="M79.703,333.441H65.359c0.129,1.148,0.439,2.004,0.932,2.566c0.691,0.809,1.594,1.213,2.707,1.213   c0.703,0,1.371-0.176,2.004-0.527c0.387-0.223,0.803-0.615,1.248-1.178l7.049,0.65c-1.078,1.875-2.379,3.22-3.902,4.034   s-3.709,1.222-6.557,1.222c-2.473,0-4.418-0.349-5.836-1.046s-2.593-1.805-3.524-3.322s-1.397-3.302-1.397-5.353   c0-2.918,0.935-5.279,2.804-7.084s4.45-2.707,7.743-2.707c2.672,0,4.781,0.404,6.328,1.213s2.725,1.98,3.533,3.516   s1.213,3.533,1.213,5.994V333.441z M72.425,330.014c-0.141-1.383-0.513-2.373-1.116-2.971s-1.397-0.896-2.382-0.896   c-1.137,0-2.045,0.451-2.725,1.354c-0.434,0.563-0.709,1.4-0.826,2.514H72.425z"/>
	<path d="M100.491,328.379l-6.838-0.721c0.258-1.195,0.63-2.136,1.116-2.821s1.187-1.28,2.101-1.784   c0.656-0.363,1.559-0.645,2.707-0.844s2.391-0.299,3.727-0.299c2.145,0,3.867,0.12,5.168,0.36s2.385,0.741,3.252,1.503   c0.609,0.527,1.09,1.274,1.441,2.241s0.527,1.89,0.527,2.769v8.244c0,0.879,0.056,1.567,0.167,2.065s0.354,1.134,0.729,1.907   h-6.715c-0.27-0.48-0.445-0.847-0.527-1.099s-0.164-0.647-0.246-1.187c-0.938,0.902-1.869,1.547-2.795,1.934   c-1.266,0.516-2.736,0.773-4.412,0.773c-2.227,0-3.917-0.516-5.071-1.547s-1.731-2.303-1.731-3.814   c0-1.418,0.416-2.584,1.248-3.498s2.367-1.594,4.605-2.039c2.684-0.539,4.424-0.917,5.221-1.134s1.641-0.501,2.531-0.853   c0-0.879-0.182-1.494-0.545-1.846s-1.002-0.527-1.916-0.527c-1.172,0-2.051,0.188-2.637,0.563   C101.142,327.02,100.772,327.57,100.491,328.379z M106.696,332.141c-0.984,0.352-2.01,0.662-3.076,0.932   c-1.453,0.387-2.373,0.768-2.76,1.143c-0.398,0.387-0.598,0.826-0.598,1.318c0,0.563,0.196,1.022,0.589,1.38   s0.97,0.536,1.731,0.536c0.797,0,1.538-0.193,2.224-0.58s1.172-0.858,1.459-1.415s0.431-1.28,0.431-2.171V332.141z"/>
	<path d="M129.208,315.23h7.172V341h-7.172V315.23z"/>
	<path d="M152.51,315.23h11.83c2.332,0,4.216,0.316,5.651,0.949s2.622,1.541,3.56,2.725s1.617,2.561,2.039,4.131   s0.633,3.234,0.633,4.992c0,2.754-0.313,4.89-0.94,6.407s-1.497,2.789-2.61,3.814s-2.309,1.708-3.586,2.048   c-1.746,0.469-3.328,0.703-4.746,0.703h-11.83V315.23z M160.473,321.066v14.08h1.951c1.664,0,2.848-0.185,3.551-0.554   s1.254-1.014,1.652-1.934s0.598-2.411,0.598-4.474c0-2.73-0.445-4.6-1.336-5.607s-2.367-1.512-4.43-1.512H160.473z"/>
	<path d="M210.582,341h-6.68v-3.023c-0.996,1.242-2.001,2.127-3.015,2.654s-2.259,0.791-3.735,0.791   c-1.969,0-3.513-0.589-4.632-1.767s-1.679-2.991-1.679-5.44v-11.883h7.189v10.266c0,1.172,0.217,2.004,0.65,2.496   s1.043,0.738,1.828,0.738c0.855,0,1.556-0.328,2.101-0.984s0.817-1.834,0.817-3.533v-8.982h7.154V341z"/>
	<path d="M226.149,315.23h7.172V341h-7.172V315.23z"/>
	<path d="M262.793,333.688l6.803,0.773c-0.375,1.418-0.99,2.646-1.846,3.683s-1.947,1.843-3.277,2.417s-3.021,0.861-5.072,0.861   c-1.98,0-3.629-0.185-4.947-0.553c-1.318-0.369-2.453-0.966-3.402-1.792c-0.949-0.825-1.693-1.794-2.232-2.906   s-0.809-2.588-0.809-4.426c0-1.92,0.328-3.519,0.984-4.795c0.48-0.937,1.137-1.776,1.969-2.52c0.832-0.744,1.687-1.297,2.566-1.66   c1.395-0.573,3.182-0.86,5.361-0.86c3.047,0,5.371,0.545,6.971,1.635s2.721,2.684,3.365,4.781l-6.732,0.896   c-0.211-0.797-0.594-1.397-1.15-1.802s-1.305-0.606-2.242-0.606c-1.184,0-2.141,0.424-2.873,1.272   c-0.732,0.848-1.1,2.132-1.1,3.852c0,1.532,0.363,2.696,1.09,3.491c0.727,0.796,1.652,1.193,2.777,1.193   c0.938,0,1.727-0.24,2.365-0.721S262.477,334.684,262.793,333.688z"/>
	<path d="M304.588,333.441h-14.344c0.129,1.148,0.439,2.004,0.932,2.566c0.691,0.809,1.594,1.213,2.707,1.213   c0.703,0,1.371-0.176,2.004-0.527c0.387-0.223,0.803-0.615,1.248-1.178l7.049,0.65c-1.078,1.875-2.379,3.22-3.902,4.034   s-3.709,1.222-6.557,1.222c-2.473,0-4.418-0.349-5.836-1.046s-2.593-1.805-3.524-3.322s-1.397-3.302-1.397-5.353   c0-2.918,0.935-5.279,2.804-7.084s4.45-2.707,7.743-2.707c2.672,0,4.781,0.404,6.328,1.213s2.725,1.98,3.533,3.516   s1.213,3.533,1.213,5.994V333.441z M297.311,330.014c-0.141-1.383-0.513-2.373-1.116-2.971s-1.397-0.896-2.382-0.896   c-1.137,0-2.045,0.451-2.725,1.354c-0.434,0.563-0.709,1.4-0.826,2.514H297.311z"/>
	<path d="M327.486,315.23v7.102h3.938v5.238h-3.938v6.613c0,0.796,0.076,1.322,0.229,1.579c0.234,0.397,0.645,0.597,1.23,0.597   c0.527,0,1.266-0.152,2.215-0.456l0.527,4.938c-1.77,0.387-3.422,0.58-4.957,0.58c-1.781,0-3.094-0.229-3.938-0.685   c-0.844-0.457-1.469-1.149-1.873-2.08s-0.605-2.438-0.605-4.521v-6.566h-2.637v-5.238h2.637v-3.428L327.486,315.23z"/>
	<path d="M345.831,333.828h7.646V341h-7.646V333.828z"/>
	<path d="M382.704,333.688l6.803,0.773c-0.375,1.418-0.99,2.646-1.846,3.683s-1.948,1.843-3.278,2.417s-3.021,0.861-5.071,0.861   c-1.98,0-3.63-0.185-4.948-0.553c-1.318-0.369-2.452-0.966-3.401-1.792c-0.949-0.825-1.693-1.794-2.232-2.906   s-0.809-2.588-0.809-4.426c0-1.92,0.328-3.519,0.984-4.795c0.48-0.937,1.137-1.776,1.969-2.52c0.832-0.744,1.688-1.297,2.566-1.66   c1.395-0.573,3.182-0.86,5.361-0.86c3.047,0,5.37,0.545,6.97,1.635s2.722,2.684,3.366,4.781l-6.732,0.896   c-0.211-0.797-0.595-1.397-1.151-1.802s-1.304-0.606-2.241-0.606c-1.184,0-2.142,0.424-2.874,1.272   c-0.732,0.848-1.099,2.132-1.099,3.852c0,1.532,0.363,2.696,1.09,3.491c0.727,0.796,1.652,1.193,2.777,1.193   c0.938,0,1.726-0.24,2.364-0.721S382.388,334.684,382.704,333.688z"/>
	<path d="M402.895,331.719c0-2.848,0.961-5.194,2.883-7.04s4.518-2.769,7.787-2.769c3.738,0,6.563,1.084,8.473,3.252   c1.535,1.746,2.303,3.896,2.303,6.451c0,2.871-0.952,5.224-2.856,7.058s-4.538,2.751-7.901,2.751c-3,0-5.426-0.762-7.277-2.285   C404.031,337.25,402.895,334.777,402.895,331.719z M410.066,331.701c0,1.664,0.337,2.895,1.011,3.691s1.521,1.195,2.54,1.195   c1.031,0,1.878-0.393,2.54-1.178s0.993-2.045,0.993-3.779c0-1.617-0.334-2.821-1.002-3.612s-1.494-1.187-2.479-1.187   c-1.043,0-1.904,0.401-2.584,1.204S410.066,330.061,410.066,331.701z"/>
	<path d="M438.818,322.332h6.68v2.725c0.963-1.137,1.934-1.945,2.913-2.426c0.98-0.48,2.163-0.721,3.548-0.721   c1.49,0,2.67,0.264,3.538,0.791s1.578,1.313,2.13,2.355c1.123-1.219,2.147-2.048,3.072-2.487c0.924-0.439,2.065-0.659,3.423-0.659   c2.001,0,3.563,0.595,4.687,1.784c1.124,1.189,1.686,3.05,1.686,5.581V341h-7.172v-10.635c0-0.844-0.164-1.471-0.49-1.881   c-0.479-0.645-1.075-0.967-1.787-0.967c-0.841,0-1.519,0.305-2.032,0.914s-0.771,1.588-0.771,2.936V341h-7.172v-10.283   c0-0.82-0.047-1.377-0.142-1.67c-0.152-0.469-0.417-0.847-0.793-1.134c-0.377-0.287-0.817-0.431-1.323-0.431   c-0.823,0-1.5,0.311-2.028,0.932c-0.529,0.621-0.794,1.641-0.794,3.059V341h-7.172V322.332z"/>
	<path d="M22,346.581v-2.162h461.583v2.162H22z"/>
</g>
</svg>